<svg width="30" height="30" viewBox="0 0 30 30" fill="none" xmlns="http://www.w3.org/2000/svg">
<path d="M9.66569 19.3948H9.66706C9.6682 19.3948 9.66935 19.3945 9.67049 19.3945H25.6055C25.9978 19.3945 26.3427 19.1343 26.4505 18.7571L29.9661 6.45241C30.0419 6.18713 29.9888 5.90195 29.8229 5.68176C29.6567 5.46158 29.3969 5.33203 29.1211 5.33203H7.63871L7.01043 2.50465C6.92094 2.10251 6.56434 1.81641 6.15235 1.81641H0.878914C0.393455 1.81641 7.62939e-06 2.20985 7.62939e-06 2.69531C7.62939e-06 3.18077 0.393455 3.57422 0.878914 3.57422H5.44739C5.55863 4.07524 8.45399 17.1046 8.62061 17.8542C7.68655 18.2602 7.03126 19.1915 7.03126 20.2734C7.03126 21.7273 8.21412 22.9102 9.66798 22.9102H25.6055C26.0909 22.9102 26.4844 22.5167 26.4844 22.0312C26.4844 21.5458 26.0909 21.1523 25.6055 21.1523H9.66798C9.18343 21.1523 8.78907 20.758 8.78907 20.2734C8.78907 19.7896 9.18206 19.3959 9.66569 19.3948V19.3948ZM27.9559 7.08984L24.9424 17.6367H10.3729L8.02918 7.08984H27.9559Z" fill="white"/>
<path d="M8.78906 25.5469C8.78906 27.0007 9.97192 28.1836 11.4258 28.1836C12.8796 28.1836 14.0625 27.0007 14.0625 25.5469C14.0625 24.093 12.8796 22.9102 11.4258 22.9102C9.97192 22.9102 8.78906 24.093 8.78906 25.5469ZM11.4258 24.668C11.9103 24.668 12.3047 25.0623 12.3047 25.5469C12.3047 26.0314 11.9103 26.4258 11.4258 26.4258C10.9412 26.4258 10.5469 26.0314 10.5469 25.5469C10.5469 25.0623 10.9412 24.668 11.4258 24.668Z" fill="white"/>
<path d="M21.2109 25.5469C21.2109 27.0007 22.3938 28.1836 23.8476 28.1836C25.3015 28.1836 26.4844 27.0007 26.4844 25.5469C26.4844 24.093 25.3015 22.9102 23.8476 22.9102C22.3938 22.9102 21.2109 24.093 21.2109 25.5469ZM23.8476 24.668C24.3322 24.668 24.7266 25.0623 24.7266 25.5469C24.7266 26.0314 24.3322 26.4258 23.8476 26.4258C23.3631 26.4258 22.9687 26.0314 22.9687 25.5469C22.9687 25.0623 23.3631 24.668 23.8476 24.668Z" fill="white"/>
</svg>
