<svg width="25" height="25" viewBox="0 0 25 25" fill="none" xmlns="http://www.w3.org/2000/svg">
<g clip-path="url(#clip0_12_14)">
<path d="M23.0167 3.54385C21.7226 2.14024 19.9469 1.36719 18.0162 1.36719C16.5731 1.36719 15.2515 1.82343 14.0881 2.72312C13.501 3.17726 12.969 3.73287 12.5 4.38137C12.0312 3.73306 11.499 3.17726 10.9118 2.72312C9.74846 1.82343 8.42686 1.36719 6.98376 1.36719C5.05314 1.36719 3.27721 2.14024 1.98307 3.54385C0.704384 4.93107 0 6.82621 0 8.88042C0 10.9947 0.787926 12.9301 2.47955 14.9714C3.99284 16.7973 6.16779 18.6508 8.68645 20.7972C9.54647 21.5302 10.5213 22.361 11.5335 23.246C11.801 23.4802 12.1441 23.6092 12.5 23.6092C12.8557 23.6092 13.199 23.4802 13.4661 23.2464C14.4783 22.3612 15.4537 21.53 16.3141 20.7966C18.8324 18.6506 21.0073 16.7973 22.5206 14.9712C24.2123 12.9301 25 10.9947 25 8.88023C25 6.82621 24.2956 4.93107 23.0167 3.54385Z" fill="white"/>
</g>
<defs>
<clipPath id="clip0_12_14">
<rect width="25" height="25" fill="white"/>
</clipPath>
</defs>
</svg>
