<svg width="18" height="16" viewBox="0 0 18 16" fill="none" xmlns="http://www.w3.org/2000/svg">
<path d="M17.7123 7.30063L11.2118 0.800047C11.0263 0.614487 10.779 0.512634 10.5153 0.512634C10.2513 0.512634 10.0041 0.614633 9.81854 0.800047L9.22835 1.39038C9.04294 1.57565 8.94079 1.82311 8.94079 2.08696C8.94079 2.35067 9.04294 2.60647 9.22835 2.79174L13.0206 6.59234H0.972429C0.429215 6.59234 0 7.01761 0 7.56097V8.39555C0 8.93891 0.429215 9.40705 0.972429 9.40705H13.0636L9.22849 13.2289C9.04308 13.4144 8.94094 13.6552 8.94094 13.919C8.94094 14.1826 9.04308 14.4268 9.22849 14.6122L9.81868 15.2007C10.0042 15.3862 10.2514 15.4873 10.5154 15.4873C10.7791 15.4873 11.0264 15.3849 11.212 15.1993L17.7124 8.69891C17.8984 8.51276 18.0007 8.26428 18 8.00013C18.0006 7.73511 17.8984 7.48648 17.7123 7.30063Z" fill="#787878"/>
</svg>
